<svg width="20" height="21" viewBox="0 0 20 21" fill="none" xmlns="http://www.w3.org/2000/svg">
<mask id="mask0_57544_1924" style="mask-type:alpha" maskUnits="userSpaceOnUse" x="0" y="0" width="20" height="21">
<rect y="0.754272" width="20" height="20" fill="#D9D9D9"/>
</mask>
<g mask="url(#mask0_57544_1924)">
<path d="M3.33317 19.0876V9.92098H1.6665V4.92098H5.99984C5.93039 4.79598 5.88525 4.66404 5.86442 4.52515C5.84359 4.38626 5.83317 4.24042 5.83317 4.08765C5.83317 3.3932 6.07623 2.80292 6.56234 2.31681C7.04845 1.8307 7.63873 1.58765 8.33317 1.58765C8.65262 1.58765 8.95123 1.64667 9.229 1.76473C9.50678 1.88279 9.76373 2.04598 9.99984 2.25431C10.2359 2.03209 10.4929 1.86542 10.7707 1.75431C11.0484 1.6432 11.3471 1.58765 11.6665 1.58765C12.3609 1.58765 12.9512 1.8307 13.4373 2.31681C13.9234 2.80292 14.1665 3.3932 14.1665 4.08765C14.1665 4.24042 14.1526 4.38279 14.1248 4.51473C14.0971 4.64667 14.0554 4.78209 13.9998 4.92098H18.3332V9.92098H16.6665V19.0876H3.33317ZM11.6665 3.25431C11.4304 3.25431 11.2325 3.33417 11.0728 3.4939C10.913 3.65362 10.8332 3.85154 10.8332 4.08765C10.8332 4.32376 10.913 4.52167 11.0728 4.6814C11.2325 4.84112 11.4304 4.92098 11.6665 4.92098C11.9026 4.92098 12.1005 4.84112 12.2603 4.6814C12.42 4.52167 12.4998 4.32376 12.4998 4.08765C12.4998 3.85154 12.42 3.65362 12.2603 3.4939C12.1005 3.33417 11.9026 3.25431 11.6665 3.25431ZM7.49984 4.08765C7.49984 4.32376 7.5797 4.52167 7.73942 4.6814C7.89914 4.84112 8.09706 4.92098 8.33317 4.92098C8.56928 4.92098 8.7672 4.84112 8.92692 4.6814C9.08664 4.52167 9.1665 4.32376 9.1665 4.08765C9.1665 3.85154 9.08664 3.65362 8.92692 3.4939C8.7672 3.33417 8.56928 3.25431 8.33317 3.25431C8.09706 3.25431 7.89914 3.33417 7.73942 3.4939C7.5797 3.65362 7.49984 3.85154 7.49984 4.08765ZM3.33317 6.58765V8.25431H9.1665V6.58765H3.33317ZM9.1665 17.421V9.92098H4.99984V17.421H9.1665ZM10.8332 17.421H14.9998V9.92098H10.8332V17.421ZM16.6665 8.25431V6.58765H10.8332V8.25431H16.6665Z" fill="#0B6248"/>
</g>
</svg>
