<svg width="20" height="20" viewBox="0 0 20 20" fill="none" xmlns="http://www.w3.org/2000/svg">
<path fill-rule="evenodd" clip-rule="evenodd" d="M2.4564 0C0.73692 0 0 1.09977 0 2.4564V17.5436C0 18.9143 0.736921 20 2.4564 20H17.5436C18.9501 20 20 19.1599 20 17.5436V2.4564C20 1.04741 19.1599 0 17.5436 0H2.4564ZM1.875 10C1.875 5.51281 5.51281 1.875 10 1.875C14.4872 1.875 18.125 5.51281 18.125 10C18.125 13.6377 15.7336 16.7152 12.4375 17.7506V15.0781C12.4375 14.3478 12.1338 13.6969 11.625 13.25C13.5303 12.8691 14.875 11.7763 14.875 10C14.875 9.10125 14.5206 8.27344 13.9275 7.60063C13.9788 7.44219 14.0625 7.075 14.0625 6.44531C14.0625 6.05938 14.0366 5.58563 13.8594 5.125C13.8594 5.125 12.7006 5.13313 11.6078 6.16813C11.1034 6.02125 10.5638 5.9375 10 5.9375C9.43625 5.9375 8.89656 6.02125 8.39219 6.16813C7.29937 5.13313 6.14063 5.125 6.14063 5.125C5.96438 5.58563 5.9375 6.05938 5.9375 6.44531C5.9375 7.02938 6.04156 7.38781 6.10406 7.565C5.49219 8.24406 5.125 9.085 5.125 10C5.125 11.7763 6.46969 12.8691 8.375 13.25C7.94688 13.6263 7.68438 14.1519 7.60063 14.7419C7.41938 14.8294 7.15625 14.875 6.85157 14.875C6.60688 14.875 6.13157 14.7594 5.68875 14.0697C5.51 13.7903 5.125 13.25 4.61719 13.25C4.61359 13.25 4.60984 13.25 4.60596 13.25C4.50322 13.2498 4.30949 13.2493 4.3125 13.3972C4.3133 13.4346 4.34311 13.4531 4.40419 13.4908C4.46239 13.5268 4.54899 13.5804 4.66594 13.6847C4.86656 13.8644 5.05344 14.1584 5.125 14.4688C5.24281 14.9781 5.715 15.9922 6.85157 15.9922C7.25782 15.9922 7.5625 15.8906 7.5625 15.8906V17.7506C4.26639 16.7152 1.875 13.6377 1.875 10ZM7.5625 17.7506V17.7522C7.7425 17.8084 7.92594 17.8578 8.11094 17.9019C7.92558 17.8577 7.74269 17.8072 7.5625 17.7506ZM12.4375 17.7506C12.2573 17.8072 12.0744 17.8577 11.8891 17.9019C12.0744 17.8578 12.2575 17.8088 12.4375 17.7522V17.7506Z" fill="black"/>
</svg>
