<svg width="20" height="21" viewBox="0 0 20 21" fill="none" xmlns="http://www.w3.org/2000/svg">
<path fill-rule="evenodd" clip-rule="evenodd" d="M2.4564 0.796265C0.73692 0.796265 0 1.89603 0 3.25267V18.3399C0 19.7105 0.736921 20.7963 2.4564 20.7963H17.5436C18.9501 20.7963 20 19.9562 20 18.3399V3.25266C20 1.84367 19.1599 0.796265 17.5436 0.796265H2.4564ZM1.875 10.7963C1.875 6.30908 5.51281 2.67127 10 2.67127C14.4872 2.67127 18.125 6.30908 18.125 10.7963C18.125 14.434 15.7336 17.5115 12.4375 18.5469V15.8744C12.4375 15.1441 12.1338 14.4931 11.625 14.0463C13.5303 13.6653 14.875 12.5725 14.875 10.7963C14.875 9.89752 14.5206 9.0697 13.9275 8.39689C13.9788 8.23845 14.0625 7.87127 14.0625 7.24158C14.0625 6.85564 14.0366 6.38189 13.8594 5.92127C13.8594 5.92127 12.7006 5.92939 11.6078 6.96439C11.1034 6.81752 10.5638 6.73377 10 6.73377C9.43625 6.73377 8.89656 6.81752 8.39219 6.96439C7.29937 5.92939 6.14063 5.92127 6.14063 5.92127C5.96438 6.38189 5.9375 6.85564 5.9375 7.24158C5.9375 7.82564 6.04156 8.18408 6.10406 8.36127C5.49219 9.04033 5.125 9.88127 5.125 10.7963C5.125 12.5725 6.46969 13.6653 8.375 14.0463C7.94688 14.4225 7.68438 14.9481 7.60063 15.5381C7.41938 15.6256 7.15625 15.6713 6.85157 15.6713C6.60688 15.6713 6.13157 15.5556 5.68875 14.866C5.51 14.5866 5.125 14.0463 4.61719 14.0463C4.61359 14.0463 4.60984 14.0463 4.60596 14.0463C4.50322 14.046 4.30949 14.0456 4.3125 14.1935C4.3133 14.2309 4.34311 14.2493 4.40419 14.2871C4.46239 14.3231 4.54899 14.3767 4.66594 14.481C4.86656 14.6606 5.05344 14.9547 5.125 15.265C5.24281 15.7744 5.715 16.7885 6.85157 16.7885C7.25782 16.7885 7.5625 16.6869 7.5625 16.6869V18.5469C4.26639 17.5115 1.875 14.434 1.875 10.7963ZM7.5625 18.5469V18.5485C7.7425 18.6047 7.92594 18.6541 8.11094 18.6981C7.92558 18.654 7.74269 18.6035 7.5625 18.5469ZM12.4375 18.5469C12.2573 18.6035 12.0744 18.654 11.8891 18.6981C12.0744 18.6541 12.2575 18.605 12.4375 18.5485V18.5469Z" fill="white"/>
</svg>
