<svg width="20" height="21" viewBox="0 0 20 21" fill="none" xmlns="http://www.w3.org/2000/svg">
<path d="M17.7778 0.796265H2.22222C0.994443 0.796265 0 1.79071 0 3.01849V18.574C0 19.8018 0.994443 20.7963 2.22222 20.7963H17.7778C19.0056 20.7963 20 19.8018 20 18.574V3.01849C20 1.79071 19.0056 0.796265 17.7778 0.796265ZM6.66667 16.3518H3.86333V8.57404H6.66667V16.3518ZM5.21555 7.14849C4.35889 7.14849 3.78667 6.57738 3.78667 5.81515C3.78667 5.05293 4.35778 4.48182 5.31 4.48182C6.16667 4.48182 6.73889 5.05293 6.73889 5.81515C6.73889 6.57738 6.16778 7.14849 5.21555 7.14849ZM16.6667 16.3518H13.9533V12.1007C13.9533 10.9252 13.23 10.654 12.9589 10.654C12.6878 10.654 11.7833 10.8352 11.7833 12.1007C11.7833 12.2818 11.7833 16.3518 11.7833 16.3518H8.98V8.57404H11.7833V9.6596C12.1444 9.02626 12.8678 8.57404 14.2244 8.57404C15.5811 8.57404 16.6667 9.6596 16.6667 12.1007V16.3518Z" fill="white"/>
</svg>
