<svg width="360" height="425" viewBox="0 0 360 425" fill="none" xmlns="http://www.w3.org/2000/svg">
<path d="M359.451 217.791C359.451 317.051 278.985 397.517 179.725 397.517C80.4657 397.517 0 317.051 0 217.791C0 118.531 80.4657 38.0653 179.725 38.0653C278.985 38.0653 359.451 118.531 359.451 217.791Z" fill="#84D3BC"/>
<path d="M99.7281 250.562C99.7281 250.562 81.273 271.654 64.3559 267.039C47.4388 262.426 29.4231 219.584 25.9078 193.44L127.63 112.407L148.55 121.299L99.7281 250.562Z" fill="#D28558"/>
<path d="M89.9525 266.055L81.2731 288.03C81.2731 288.03 120.924 323.181 190.737 321.204C260.552 319.227 293.287 288.469 293.287 288.469L279.226 267.699L89.9525 266.055Z" fill="#F04041"/>
<path d="M252.423 152.252C252.423 152.252 278.238 205.31 278.238 247.493C278.238 247.493 209.762 291.984 94.3451 243.209C94.3451 243.209 105.221 192.832 135.046 157.054L252.423 152.252Z" fill="#F04041"/>
<path d="M242.642 135.115C242.642 135.115 283.84 128.597 295.704 94.9463L312.512 98.0426C312.512 98.0426 312.093 156.268 261.759 188.944L242.642 135.115Z" fill="#F04041"/>
<path d="M252.423 152.252L239.007 152.801C242.66 161.194 248.551 175.738 253.367 192.334C261.902 221.736 242.546 251.861 212.302 256.598C183.937 261.04 144.005 260.539 94.4531 242.733C94.3849 243.03 94.3451 243.209 94.3451 243.209C209.762 291.984 278.238 247.493 278.238 247.493C278.238 205.31 252.423 152.252 252.423 152.252Z" fill="#D33B3E"/>
<path d="M95.5303 238.384C95.5303 238.384 189.257 287.369 278.239 244.528C278.239 244.528 285.158 259.028 282.522 272.869C282.522 272.869 219.073 315.052 87.2291 267.699C87.2291 267.699 90.1242 250.695 95.5303 238.384Z" fill="#1E1F20"/>
<path d="M136.712 102.419C136.712 107.845 141.111 112.245 146.538 112.245C151.962 112.245 156.362 107.845 156.362 102.419C156.362 96.9941 151.962 92.5945 146.538 92.5945C141.111 92.5945 136.712 96.9941 136.712 102.419Z" fill="#F9B0A0"/>
<path d="M144.519 102.419C144.519 104.837 146.479 106.797 148.895 106.797C151.313 106.797 153.273 104.837 153.273 102.419C153.273 100.002 151.313 98.0425 148.895 98.0425C146.479 98.0425 144.519 100.002 144.519 102.419Z" fill="#EF8E76"/>
<path d="M265.261 93.5803C265.261 99.0067 260.862 103.404 255.435 103.404C250.011 103.404 245.611 99.0067 245.611 93.5803C245.611 88.1538 250.011 83.7562 255.435 83.7562C260.862 83.7562 265.261 88.1538 265.261 93.5803Z" fill="#F9B0A0"/>
<path d="M257.454 93.5803C257.454 95.9986 255.494 97.9583 253.077 97.9583C250.659 97.9583 248.699 95.9986 248.699 93.5803C248.699 91.162 250.659 89.2022 253.077 89.2022C255.494 89.2022 257.454 91.162 257.454 93.5803Z" fill="#EF8E76"/>
<path d="M246.271 61.1294C246.271 61.1294 253.356 75.4647 250.885 102.325C250.885 102.325 266.045 118.144 266.539 134.785C267.033 151.427 254.675 163.456 254.675 163.456C254.675 163.456 259.617 172.849 251.872 184.384C244.129 195.919 215.073 200.806 211.337 211.738C208.331 220.537 214.414 226.512 214.414 226.512C214.414 226.512 174.428 228.709 152.238 200.367C130.472 172.567 138.836 134.017 150.7 116.441L150.48 74.6965C150.48 74.6965 194.86 49.5396 246.271 61.1294Z" fill="#FFFDFC"/>
<path d="M171.355 62.1737C171.355 62.1737 168.057 94.3132 176.406 110.32C176.406 110.32 217.489 115.782 240.559 109.189C240.559 109.189 247.15 85.902 240.559 57.1196C240.559 57.1196 207.391 45.2555 171.355 62.1737Z" fill="#F9B0A0"/>
<path d="M240.559 57.1196C240.559 57.1196 237.656 56.0888 232.665 55.0678C232.72 55.3422 232.775 55.6145 232.828 55.8869C238.154 83.4288 215.88 108.568 187.868 107.071C182.655 106.793 178.05 106.407 174.583 106.068C175.12 107.573 175.72 109.005 176.406 110.32C176.406 110.32 217.489 115.782 240.559 109.189C240.559 109.189 247.15 85.902 240.559 57.1196Z" fill="#F8A099"/>
<path d="M245.611 48.4421C245.611 48.4421 238.454 20.1006 207.101 5.60066C175.745 -8.90127 147.075 3.45085 114.779 58.078L124.007 68.4175C124.007 68.4175 132.904 52.5555 150.371 58.078L245.611 48.4421Z" fill="#F04041"/>
<path d="M107.968 226.704C107.968 226.704 123.219 243.326 144.519 238.384C165.817 233.44 166.311 210.805 166.311 210.805L107.968 226.704Z" fill="#D33B3E"/>
<path d="M233.418 159.987C233.418 159.987 231.111 154.057 216.776 149.609C202.44 145.16 184.718 133.627 177.43 125.882C170.144 118.136 154.521 102.91 136.709 98.4129C118.897 93.9134 98.1351 99.5162 81.1636 116.487C73.6049 124.046 62.2891 126.997 52.0604 127.944C36.6023 129.376 24.4657 142.005 23.6919 157.51C23.1759 167.824 23.5324 180.139 25.9078 193.44C25.9078 193.44 92.7322 152.593 117.524 137.415C129.572 130.037 153.044 129.804 176.002 149.609C188.503 160.393 201.339 175.644 200.735 191.682C200.735 191.682 210.783 189.256 215.784 176.518C220.785 163.779 233.418 159.987 233.418 159.987Z" fill="#D28558"/>
<path d="M145.856 124.464C153.553 126.386 169.639 138.383 159.752 170.46L168.606 163.87L183.467 175.695C183.467 175.695 159.756 256.592 107.968 226.704C63.8067 201.218 110.362 115.596 145.856 124.464Z" fill="#F04041"/>
<path d="M159.885 170.272C160.121 169.512 159.983 170.882 160.189 170.147C123.337 176.827 114.407 204.548 114.407 204.548C123.787 188.053 148.033 175.585 160.189 170.147L159.885 170.272Z" fill="#D33B3E"/>
<path d="M198.476 155.527C198.476 155.527 200.042 173.651 205.939 170.27C210.009 167.936 198.476 155.527 198.476 155.527Z" fill="#A96C4A"/>
<path d="M200.304 153.681C200.304 153.681 214.892 164.603 216.18 158.647C217.083 154.463 200.304 153.681 200.304 153.681Z" fill="#A96C4A"/>
<path d="M61.94 155.108C67.0843 155.212 71.6069 161.81 70.8375 167.411C70.0689 173.014 62.3794 179.741 64.0267 190.053C65.6748 200.367 62.9283 217.064 51.5037 217.944C40.0791 218.822 39.9696 197.181 40.6288 188.503C41.2879 179.826 45.5716 154.778 61.94 155.108Z" fill="#C57E56"/>
<path d="M53.2612 173.233C56.4311 173.182 56.667 188.723 52.3823 188.942C48.0985 189.162 47.4058 173.329 53.2612 173.233Z" fill="#A96C4A"/>
<path d="M219.819 238.384C219.819 241.043 217.661 243.201 215.002 243.201C212.34 243.201 210.185 241.043 210.185 238.384C210.185 235.723 212.34 233.567 215.002 233.567C217.661 233.567 219.819 235.723 219.819 238.384Z" fill="#1E1F20"/>
<path d="M308.539 97.3097C303.24 139.902 272.244 162.888 255.823 172.226L261.759 188.944C312.093 156.268 312.512 98.0426 312.512 98.0426L308.539 97.3097Z" fill="#D33B3E"/>
<path d="M151.276 53.8802C151.276 53.8802 147.439 50.872 151.982 43.3996C156.526 35.9292 159.454 31.3846 161.674 32.4958C163.897 33.6069 158.545 50.8721 158.545 50.8721L151.276 53.8802Z" fill="#D33B3E"/>
<path d="M199.861 108.265C199.861 114.014 206.64 118.677 215.002 118.677C223.364 118.677 230.143 114.014 230.143 108.265C230.143 102.513 223.364 97.8506 215.002 97.8506C206.64 97.8506 199.861 102.513 199.861 108.265Z" fill="#EF8E76"/>
<path d="M215.784 104.68C215.784 105.93 217.256 106.942 219.072 106.942C220.889 106.942 222.361 105.93 222.361 104.68C222.361 103.432 220.889 102.418 219.072 102.418C217.256 102.418 215.784 103.432 215.784 104.68Z" fill="#F9B0A0"/>
<path d="M234.821 89.024C234.821 92.2948 232.169 94.9463 228.9 94.9463C225.63 94.9463 222.98 92.2948 222.98 89.024C222.98 85.7552 225.63 83.1037 228.9 83.1037C232.169 83.1037 234.821 85.7552 234.821 89.024Z" fill="#1E1F20"/>
<path d="M231.247 89.0239C231.247 90.3212 230.196 91.3697 228.901 91.3697C227.604 91.3697 226.555 90.3212 226.555 89.0239C226.555 87.7285 227.604 86.6781 228.901 86.6781C230.196 86.6781 231.247 87.7285 231.247 89.0239Z" fill="white"/>
<path d="M198.607 89.024C198.607 92.2948 195.958 94.9463 192.687 94.9463C189.418 94.9463 186.767 92.2948 186.767 89.024C186.767 85.7552 189.418 83.1037 192.687 83.1037C195.958 83.1037 198.607 85.7552 198.607 89.024Z" fill="#1E1F20"/>
<path d="M195.033 89.0239C195.033 90.3212 193.982 91.3697 192.687 91.3697C191.392 91.3697 190.341 90.3212 190.341 89.0239C190.341 87.7285 191.392 86.6781 192.687 86.6781C193.982 86.6781 195.033 87.7285 195.033 89.0239Z" fill="white"/>
<path d="M224.823 77.7693C220.51 77.7732 217.964 70.9417 221.558 67.4926C225.152 64.0435 239.437 70.2009 242.284 73.3168C245.13 76.4308 230.326 77.7634 224.823 77.7693Z" fill="#FFFDFC"/>
<path d="M195.556 77.1108C199.842 76.6366 201.612 69.562 197.655 66.5342C193.698 63.5065 180.19 71.2199 177.709 74.6318C175.228 78.0437 190.087 77.7184 195.556 77.1108Z" fill="#FFFDFC"/>
<path d="M144.366 55.8948C133.66 61.1233 143.853 79.7897 147.184 80.7578C150.518 81.7278 168.831 69.75 195.033 63.9316C221.236 58.1112 244.733 67.3199 248.907 65.8443C253.082 64.3706 256.1 43.2879 242.642 41.5222C225.697 39.296 188.646 34.2712 144.366 55.8948Z" fill="#FFFDFC"/>
<path d="M248.907 65.8443C252.96 64.4137 255.877 44.5502 243.726 41.7752C237.404 53.8902 219.073 49.4299 191.565 58.0781C171.85 64.2767 154.865 75.2649 149.05 80.5679C155.075 78.9119 172 69.0465 195.033 63.9316C221.236 58.1112 244.733 67.3199 248.907 65.8443Z" fill="#EAEAE8"/>
<path d="M182.812 138.299C182.812 138.299 191.658 124.397 201.376 126.439C211.094 128.479 214.677 134.433 212.635 145.307C211.022 153.904 200.133 164.215 189.406 169.12L171.098 157.091C171.098 157.091 165.599 135.173 174.494 132.33C180.528 130.401 182.812 138.299 182.812 138.299Z" fill="#F04041"/>
<path d="M206.031 127.934C205.454 155.999 178.667 157.681 171.967 157.661L189.406 169.12C200.133 164.215 211.022 153.904 212.635 145.307C214.308 136.394 212.196 130.791 206.031 127.934Z" fill="#D33B3E"/>
<path d="M161.267 169.331L180.664 182.787C180.664 182.787 187.751 180.974 190.737 168.169L170.584 155.878C170.584 155.878 163.95 157.365 161.267 169.331Z" fill="#FFFDFC"/>
<path d="M188.503 166.662C188.468 166.752 188.431 166.843 188.396 166.933C185.405 174.319 177.425 175.093 170.782 170.693L162.86 165.449C162.329 166.872 161.643 167.658 161.267 169.331L180.664 182.787C180.664 182.787 187.751 180.974 190.737 168.169L188.503 166.662Z" fill="#EAEAE8"/>
<path d="M299.921 61.6407C299.921 61.6407 302.24 46.0805 311.507 44.0874C320.777 42.0944 326.213 45.8963 328.655 56.175C330.583 64.2981 325.092 77.5183 317.639 85.9608L297.001 82.5764C297.001 82.5764 283.695 65.5954 290.348 59.6633C294.863 55.638 299.921 61.6407 299.921 61.6407Z" fill="#F04041"/>
<path d="M316.148 43.5858C326.542 68.288 303.831 80.1541 297.979 82.737L317.639 85.9608C325.092 77.5183 330.583 64.2981 328.655 56.175C326.652 47.7502 322.634 43.6838 316.148 43.5858Z" fill="#D33B3E"/>
<path d="M293.177 97.0725L315.32 101.276C315.32 101.276 320.795 96.9432 318.43 84.6146L296.079 81.7201C296.079 81.7201 290.871 85.5925 293.177 97.0725Z" fill="#FFFDFC"/>
<path d="M315.896 84.1678C315.9 84.2618 315.904 84.3559 315.906 84.448C316.167 92.0498 309.506 95.8242 302.004 94.566L293.06 93.0668C293.148 94.5131 292.854 95.4656 293.177 97.0725L315.32 101.276C315.32 101.276 320.795 96.9432 318.43 84.6146L315.896 84.1678Z" fill="#EAEAE8"/>
<path d="M263.898 300.964C263.898 300.964 267.027 334.051 261.064 352.097L202.135 353.322L190.641 310.219L263.898 300.964Z" fill="#F04041"/>
<path d="M263.898 300.964L257.975 301.712C257.63 303.029 257.309 304.452 257.021 306.004C251.236 337.211 227.943 348.828 213.503 353.084L261.064 352.097C267.027 334.051 263.898 300.964 263.898 300.964Z" fill="#D33B3E"/>
<path d="M205.333 364.386L213.133 420.078L278.264 423.687L255.949 403.939L259.19 360.192L205.333 364.386Z" fill="#1E1F20"/>
<path d="M258.94 372.652L203.088 372.28C200.397 372.262 198.212 370.046 198.229 367.355L198.312 354.921C198.329 352.23 200.546 350.043 203.237 350.061L259.089 350.433C261.779 350.45 263.966 352.667 263.947 355.358L263.864 367.792C263.847 370.483 261.63 372.67 258.94 372.652Z" fill="#FFFDFC"/>
<path d="M177.586 307.525C177.586 307.525 166.584 338.888 153.618 352.78L99.5818 329.238L107.177 285.282L177.586 307.525Z" fill="#F04041"/>
<path d="M177.586 307.525L171.892 305.726C171.028 306.778 170.14 307.937 169.229 309.226C150.919 335.147 124.902 335.954 110.005 333.779L153.618 352.78C166.584 338.888 177.586 307.525 177.586 307.525Z" fill="#D33B3E"/>
<path d="M97.8557 340.626L81.6413 394.472L139.286 425L127.279 397.729L148.526 359.349L97.8557 340.626Z" fill="#1E1F20"/>
<path d="M143.086 370.561L92.5147 346.856C90.0789 345.714 89.0193 342.786 90.1616 340.35L95.439 329.092C96.5811 326.656 99.5093 325.596 101.945 326.738L152.518 350.443C154.954 351.585 156.013 354.513 154.87 356.949L149.592 368.207C148.452 370.646 145.524 371.703 143.086 370.561Z" fill="#FFFDFC"/>
<path d="M219.423 285.051H183.662C183.17 285.051 182.773 284.651 182.773 284.161V267.978C182.773 267.488 183.17 267.088 183.662 267.088H219.423C219.915 267.088 220.315 267.488 220.315 267.978V284.161C220.315 284.651 219.915 285.051 219.423 285.051ZM174.038 261.138V290.998C174.038 291.49 174.436 291.89 174.928 291.89H228.158C228.65 291.89 229.049 291.49 229.049 290.998V261.138C229.049 260.648 228.65 260.249 228.158 260.249H174.928C174.436 260.249 174.038 260.648 174.038 261.138Z" fill="#FCCE3C"/>
<path d="M83.9343 282.713C82.9102 282.125 81.6119 282.482 81.0253 283.507C78.9378 287.154 74.6578 295.23 74.8493 299.829C75.1027 305.901 99.2278 315.28 112.233 320.577C155.313 338.122 213.186 339.11 244.625 331.202C268.554 325.186 300.67 313.58 302.439 309.316C304.099 305.324 299.656 293.28 294.792 288.182C294.253 287.616 293.423 287.45 292.727 287.804C285.013 291.751 236.749 315.035 182.636 308.938C121.044 301.996 91.2029 286.889 83.9343 282.713Z" fill="#FFFDFC"/>
<path d="M121.148 61.139C121.148 61.139 115.498 53.8332 105.175 55.9772C94.8501 58.1191 90.6619 76.4307 109.168 75.5528C109.168 75.5528 109.168 89.5785 119.102 90.3624C129.88 91.2149 131.764 80.1307 126.408 75.9428C126.408 75.9428 132.348 74.6768 133.128 68.9309C133.907 63.183 128.064 57.7291 121.148 61.139Z" fill="#FFFDFC"/>
<path d="M216.715 128.885C216.317 128.904 215.916 128.91 215.512 128.896C207.779 128.657 204.332 122.743 204.189 122.49C203.842 121.883 204.055 121.108 204.663 120.762C205.272 120.417 206.042 120.63 206.389 121.234C206.509 121.44 209.319 126.168 215.59 126.362C219.124 126.468 222.324 124.973 225.359 121.779C225.842 121.273 226.643 121.252 227.153 121.734C227.66 122.216 227.68 123.019 227.198 123.527C223.972 126.919 220.533 128.681 216.715 128.885Z" fill="#EF8E76"/>
</svg>
