<svg width="245" height="275" viewBox="0 0 245 275" fill="none" xmlns="http://www.w3.org/2000/svg">
<path d="M244.56 139.765C244.56 207.299 189.813 262.045 122.28 262.045C54.7464 262.045 0 207.299 0 139.765C0 72.2319 54.7464 17.4853 122.28 17.4853C189.813 17.4853 244.56 72.2319 244.56 139.765Z" fill="#84D3BC"/>
<path d="M152.622 216.285C152.622 216.285 142.694 237.355 142.525 246.832L110.985 244.885L116.344 215.44L152.622 216.285Z" fill="#F04041"/>
<path d="M142.525 246.832C142.694 237.355 152.622 216.285 152.622 216.285L147.684 216.171C147.662 216.233 147.641 216.288 147.618 216.352C141.108 235.472 120.997 242.647 112.008 244.949L142.525 246.832Z" fill="#D33B3E"/>
<path d="M209.608 199.871C209.608 199.871 209.79 220.263 202.345 243.785L170.364 244.857C170.364 244.857 165.956 222.716 159.521 214.593L209.608 199.871Z" fill="#F04041"/>
<path d="M209.554 202.549C207.725 204.208 206.271 206.977 205.393 211.219C200.901 232.928 181.643 241.871 173.39 244.756L202.345 243.785C208.184 225.337 209.331 208.819 209.554 202.549Z" fill="#D33B3E"/>
<path d="M95.7861 39.0186C95.7861 39.0186 106.174 11.0959 131.71 3.73455C157.247 -3.62678 171.622 2.56656 177.811 6.27323C186.118 11.2466 204.717 17.6959 205.731 35.7186L194.562 41.0493C194.562 41.0493 191.818 33.3826 188.367 29.7279C188.367 29.7279 179.67 31.1493 174.551 41.0493L95.7861 39.0186Z" fill="#F04041"/>
<path d="M96.5289 67.7786C96.5289 67.7786 93.2289 63.3786 87.9409 64.9866C82.6516 66.5946 81.0449 76.0719 93.1449 82.9252L99.4902 74.1919L96.5289 67.7786Z" fill="#F9B0A0"/>
<path d="M165.962 69.3107C165.962 69.3107 169.262 64.9107 174.552 66.5187C179.84 68.1254 181.448 77.6027 169.348 84.456L163.001 75.7227L165.962 69.3107Z" fill="#F9B0A0"/>
<path d="M96.4732 72.3853C96.4732 74.1786 95.0185 75.6319 93.2265 75.6319C91.4332 75.6319 89.9785 74.1786 89.9785 72.3853C89.9785 70.592 91.4332 69.1386 93.2265 69.1386C95.0185 69.1386 96.4732 70.592 96.4732 72.3853Z" fill="#EF8E76"/>
<path d="M142.676 244.857L138.285 274.839H105.896L112.14 267.415L113.154 246.832L142.676 244.857Z" fill="#1E1F20"/>
<path d="M97.2144 260.135V274.839H114.72L112.562 257.088L97.2144 260.135Z" fill="#644F3F"/>
<path d="M52.1646 258.396V274.839H70.4353L67.4332 258.396H52.1646Z" fill="#644F3F"/>
<path d="M200.909 245.901L195.578 274.839H163.188L169.431 267.415L170.447 246.832L200.909 245.901Z" fill="#1E1F20"/>
<path d="M142.778 251.541H110.625C108.95 251.541 107.578 250.171 107.578 248.495V241.219C107.578 239.543 108.95 238.172 110.625 238.172H142.778C144.454 238.172 145.825 239.543 145.825 241.219V248.495C145.825 250.171 144.454 251.541 142.778 251.541Z" fill="#FFFDFC"/>
<path d="M210.809 185.788C210.809 185.788 215.548 191.409 217.24 201.732C217.24 201.732 178.317 224.409 110.985 220.178V201.732L210.809 185.788Z" fill="#F04041"/>
<path d="M181.662 102.289C181.662 102.289 209.793 129.387 210.809 180.409C210.809 180.409 180.817 197.925 119.025 198.94L105.896 142.029L181.662 102.289Z" fill="#F04041"/>
<path d="M110.985 188.851C110.985 188.851 162.385 189.851 211.193 169.812C211.854 169.54 212.608 169.839 212.898 170.492C214.026 173.037 216.336 177.312 214.972 186.611C214.91 187.025 214.656 187.387 214.286 187.585C209.49 190.161 175.14 207.317 110.985 207.317V188.851Z" fill="#1E1F20"/>
<path d="M110.985 207.317C175.14 207.317 209.49 190.161 214.286 187.585C214.656 187.387 214.91 187.025 214.972 186.611C216.336 177.312 214.026 173.037 212.898 170.492C212.608 169.839 211.854 169.54 211.193 169.812C187.657 197.656 133.934 203.045 110.985 204.683V207.317Z" fill="#111111"/>
<path d="M147.982 201.565C141.565 202.399 130.21 202.977 122.177 203.116C121.872 200.821 121.314 196.36 122.03 192.277C126.208 192.164 137.8 191.767 146.936 190.436C147.48 192.267 148.49 195.965 147.982 201.565ZM150.777 185.788C135.892 187.955 123.748 188.604 116.942 188.788C115.776 195.44 116.586 203.524 117.085 207.263C130.174 207.037 141.932 206.095 152.386 204.737C153.216 195.612 151.665 188.769 150.777 185.788Z" fill="#FCCE3C"/>
<path d="M138.548 179.239C138.548 181.527 136.693 183.383 134.405 183.383C132.116 183.383 130.261 181.527 130.261 179.239C130.261 176.951 132.116 175.095 134.405 175.095C136.693 175.095 138.548 176.951 138.548 179.239Z" fill="#1E1F20"/>
<path d="M142.488 47.8959C142.181 47.8225 141.862 47.9919 141.752 48.2879C141.308 49.4679 140.336 52.3986 140.964 53.9946C141.61 55.6359 149.73 56.1173 152.825 56.2413C153.341 56.2613 153.664 55.6866 153.366 55.2626C152.038 53.3679 148.598 49.3559 142.488 47.8959Z" fill="white"/>
<path d="M121.405 47.788C121.721 47.7773 121.999 48.0067 122.051 48.3187C122.252 49.5627 122.627 52.6266 121.695 54.068C120.739 55.5493 112.683 54.4173 109.625 53.928C109.115 53.8467 108.912 53.2186 109.287 52.8626C110.963 51.2666 115.127 48.0133 121.405 47.788Z" fill="white"/>
<path d="M109.646 215.537C109.646 215.537 159.586 224.455 216.392 198.46C216.392 198.46 222.184 205.237 222.184 212.657C222.184 212.657 172.705 238.317 109.646 227.791V215.537Z" fill="#FFFDFC"/>
<path d="M167.274 51.8373C167.274 51.8373 169.813 65.292 167.274 76.588C167.274 76.588 177.428 83.06 173.748 100.956C170.066 118.852 139.236 151.356 116.194 150.272C93.1516 149.187 85.2969 113.268 87.1302 98.164C88.9636 83.06 94.9289 72.1453 94.9289 72.1453L93.4062 57.0346L102.29 44.6026L163.086 43.3333L167.274 51.8373Z" fill="#FFFDFC"/>
<path d="M129.205 91.06C123.792 91.06 119.388 86.656 119.388 81.244C119.388 80.8093 119.74 80.4573 120.174 80.4573C120.608 80.4573 120.961 80.8093 120.961 81.244C120.961 85.7893 124.658 89.488 129.205 89.488C133.75 89.488 137.449 85.7893 137.449 81.244C137.449 80.8093 137.801 80.4573 138.236 80.4573C138.67 80.4573 139.022 80.8093 139.022 81.244C139.022 86.656 134.618 91.06 129.205 91.06Z" fill="#EF8E76"/>
<path d="M62.2658 99.6879C62.2658 99.6879 44.4143 100.1 39.2106 93.3572C34.007 86.6145 33.8799 72.9066 29.184 72.7799C24.4878 72.6532 30.9606 90.8345 28.0414 93.3572C25.122 95.8799 14.5878 89.1532 12.1763 78.2372C9.76482 67.3225 10.907 57.4226 6.97256 57.0412C3.03816 56.6612 4.68776 73.7252 6.97256 80.5505C9.25696 87.3759 13.6991 92.8332 15.3491 94.9905C16.9991 97.1492 12.3034 100.195 6.59189 97.0212C0.880424 93.8492 0.198157 100.195 4.60069 102.988C9.00336 105.78 17.1263 107.303 26.5184 102.988C35.9106 98.6719 39.4742 104.539 49.9991 106.389C60.5242 108.24 63.3502 108.816 63.3502 108.816L65.7023 102.289L62.2658 99.6879Z" fill="#644F3F"/>
<path d="M74.1143 97.6493C74.1143 97.6493 74.1777 88.8346 73.0356 81.4732C71.8929 74.1119 81.9197 71.1306 85.4731 61.2933C89.0277 51.456 86.1077 49.9972 83.7598 49.8706C81.4118 49.7439 79.8251 53.7413 78.8104 57.4853C77.7949 61.2306 70.8143 72.0813 68.3392 70.4946C65.8643 68.9093 72.4007 56.4066 71.4487 48.4106C70.4971 40.4146 63.4168 28.144 59.5179 29.816C54.4413 31.996 57.1345 38.0053 59.5179 40.9226C65.7408 48.5373 63.5799 64.5159 58.3757 65.9759C53.172 67.4346 55.4564 49.236 50.6971 50.124C45.9377 51.0133 48.8564 60.4479 49.9991 63.6626C51.1413 66.8772 51.2048 71.2559 53.3621 72.9066C55.52 74.5559 65.3564 78.1732 65.4835 85.5986C65.6105 93.0239 66.4356 102.289 66.4356 102.289L74.1143 97.6493Z" fill="#644F3F"/>
<path d="M60.28 108.84C60.28 108.84 53.7554 101.219 39.7185 104.144C26.0106 106.999 29.3742 118.993 38.5764 120.009C46.0117 120.829 59.518 118.74 59.518 118.74L60.28 108.84Z" fill="#D28558"/>
<path d="M37.3703 113.092C36.0073 110.872 42.3833 109.22 45.1125 109.284C47.8411 109.348 52.3469 110.327 52.3469 112.089C52.3469 114.679 39.5911 116.709 37.3703 113.092Z" fill="#F9B0A0"/>
<path d="M68.2756 101.337C68.2756 101.337 70.7506 95.308 68.2756 87.8826C65.8006 80.4586 60.6552 79.5346 57.7412 81.3466C54.1027 83.6106 52.6006 97.212 65.0391 104.637L68.2756 101.337Z" fill="#D28558"/>
<path d="M61.6259 94.0306C62.5399 96.3719 64.0535 97.9679 65.0055 97.5959C65.9581 97.2239 65.9888 95.0252 65.0748 92.6839C64.1607 90.3426 62.6472 88.7452 61.6951 89.1172C60.7425 89.4892 60.7117 91.6892 61.6259 94.0306Z" fill="#F9B0A0"/>
<path d="M59.5176 108.149C63.6916 100.549 72.9718 93.976 89.3022 90.3799C114.462 84.8386 124.672 81.2413 130.594 91.0559C136.517 100.872 135.164 113.22 125.348 123.631C115.533 134.041 110.293 134.761 112.317 140.979C114.342 147.196 127.209 169.96 125.517 197.417C124.142 219.716 113.333 255.209 113.333 255.209C113.333 255.209 116.717 263.332 112.656 264.771C108.594 266.208 107.833 258.255 107.833 258.255C107.833 258.255 108.002 265.955 104.786 266.04C101.572 266.124 102.586 258.339 102.586 258.339C102.586 258.339 101.486 266.295 97.5942 266.04C93.7022 265.785 95.2249 258.424 97.2555 254.193C99.2862 249.963 99.1169 217.851 94.8022 209.475C90.4862 201.097 72.5911 206.301 72.5911 206.301C72.5911 206.301 63.5796 236.509 68.9099 254.912C74.2411 273.316 67.1333 266.336 64.8484 262.401C64.8484 262.401 67.1332 267.859 63.1984 267.859C59.264 267.859 57.9947 261.132 57.9947 261.132C57.9947 261.132 58.8832 267.097 54.0603 267.224C49.2375 267.351 52.1562 257.071 52.1562 257.071C52.1562 257.071 38.9827 216.793 51.2813 164.671C51.2813 164.671 47.714 129.641 59.5176 108.149Z" fill="#D28558"/>
<path d="M115.265 118.344C109.468 118.344 105.376 109.824 105.184 109.415C104.998 109.023 105.166 108.553 105.56 108.368C105.953 108.183 106.421 108.351 106.606 108.744C106.653 108.844 111.388 118.699 117.036 116.411C121.885 114.441 122.906 102.208 122.89 97.6586L122.864 89.9759L124.446 97.4946C125.316 101.623 127.517 108.476 129.725 109.293C130.464 109.567 131.077 109.564 131.602 109.284C132.676 108.709 133.073 107.147 133.077 107.132C133.178 106.709 133.605 106.448 134.024 106.549C134.446 106.649 134.708 107.073 134.608 107.496C134.585 107.588 134.052 109.757 132.344 110.671C131.414 111.168 130.349 111.203 129.178 110.768C126.974 109.953 125.276 106.008 124.202 102.667C123.686 108.04 122.156 116.029 117.628 117.867C116.813 118.197 116.024 118.344 115.265 118.344Z" fill="#1E1F20"/>
<path d="M113.201 135.192C113.201 135.192 86.3238 145.76 74.6977 171.144C63.0721 196.528 64.3414 214.044 69.4179 214.171C74.495 214.297 74.6977 206.301 74.6977 206.301C74.6977 206.301 74.1143 217.979 79.3185 218.613C84.5211 219.248 87.4491 209.093 87.4491 209.093C87.4491 209.093 90.7411 218.485 97.4678 216.201C104.194 213.917 92.2638 196.528 98.6105 172.287C104.956 148.044 113.641 144.311 113.641 144.311C113.641 144.311 110.625 138.313 113.201 135.192Z" fill="#F0AB83"/>
<path d="M94.1677 139.541C94.1677 139.541 110.668 153.375 125.39 143.856C140.113 134.337 156.232 97.4026 172.478 98.6719C188.724 99.9412 191.897 120.291 184.79 133.787C177.682 147.283 160.04 168.987 132.244 171.525C100.344 174.439 86.6797 147.156 86.6797 147.156L94.1677 139.541Z" fill="#F04041"/>
<path d="M183.946 104.64C185.454 111.329 184.39 119.208 181.041 125.568C173.934 139.063 156.292 160.767 128.496 163.305C107.352 165.236 94.2264 153.905 87.7744 146.043L86.6797 147.156C86.6797 147.156 100.344 174.439 132.244 171.525C160.04 168.987 177.682 147.283 184.79 133.787C189.681 124.499 189.702 111.967 183.946 104.64Z" fill="#D33B3E"/>
<path d="M81.1384 131.163C81.1384 131.163 80.5877 124.903 83.8024 124.395C87.0184 123.887 87.525 131.333 87.441 133.787C87.441 133.787 83.8864 140.387 80.5024 143.095C80.5024 143.095 60.2798 143.095 62.0564 130.233C63.3877 120.6 78.5996 122.024 81.1384 131.163Z" fill="#F04041"/>
<path d="M84.8943 127.731C84.8943 127.731 84.7636 126.228 85.0076 124.635C84.6543 124.424 84.2584 124.323 83.8024 124.395C83.6197 124.424 83.4516 124.476 83.293 124.54C84.0036 125.467 84.5596 126.531 84.8943 127.731Z" fill="#D33B3E"/>
<path d="M65.8126 126.803C65.9397 125.881 66.1954 125.064 66.5528 124.343C64.2397 125.296 62.472 127.227 62.0564 130.233C60.2798 143.095 80.5024 143.095 80.5024 143.095C81.5837 142.229 82.681 140.967 83.6757 139.649C80.3904 139.532 64.2153 138.365 65.8126 126.803Z" fill="#D33B3E"/>
<path d="M80.5024 143.095L87.441 133.787L95.7864 139.795L87.4491 150.272L80.5024 143.095Z" fill="#FFFDFC"/>
<path d="M63.4529 148.044C67.7909 150.693 68.53 160.132 61.168 163.036C53.8065 165.94 44.1425 157.944 44.1607 151.725C44.1759 146.623 51.2248 140.577 63.4529 148.044Z" fill="#F04041"/>
<path d="M63.4529 148.044C54.5311 142.596 48.3702 144.344 45.6831 147.668C48.7915 147.272 52.8322 148.1 57.6951 151.069C61.1456 153.176 62.3024 159.568 58.9358 163.561C59.6936 163.475 60.4436 163.323 61.168 163.036C68.53 160.132 67.7909 150.693 63.4529 148.044Z" fill="#D33B3E"/>
<path d="M131.71 93.1318C131.37 92.4305 131.004 91.7359 130.594 91.0559C126.573 84.3933 120.57 83.9145 109.261 86.0265C107.121 87.5185 104.422 90.4705 106.859 94.7372C110.178 100.545 127.107 104.244 131.71 93.1318Z" fill="#D33B3E"/>
<path d="M118.281 90.4213C118.281 91.5773 119.631 92.5146 121.295 92.5146C122.961 92.5146 124.31 91.5773 124.31 90.4213C124.31 89.264 122.961 88.3266 121.295 88.3266C119.631 88.3266 118.281 89.264 118.281 90.4213Z" fill="#F57580"/>
<path d="M110.985 108.793C110.985 112.387 107.958 115.299 104.226 115.299C100.493 115.299 97.4678 112.387 97.4678 108.793C97.4678 105.201 100.493 102.289 104.226 102.289C107.958 102.289 110.985 105.201 110.985 108.793Z" fill="#F9B0A0"/>
<path d="M87.0543 112.632C83.1969 112.632 79.9036 106.24 79.5009 105.431C79.3089 105.041 79.4676 104.571 79.8569 104.377C80.2463 104.185 80.7183 104.343 80.9103 104.732C81.9503 106.823 85.2209 112.004 87.8303 110.895C88.3369 110.679 88.6783 110.315 88.8729 109.78C89.6183 107.741 88.0889 103.937 87.4356 102.643C87.2409 102.255 87.3969 101.783 87.7849 101.587C88.1703 101.391 88.6449 101.547 88.8409 101.935C88.9489 102.149 91.4796 107.231 90.3516 110.32C90.0036 111.271 89.3623 111.952 88.4463 112.341C87.9769 112.541 87.5116 112.632 87.0543 112.632Z" fill="#1E1F20"/>
<path d="M105.896 49.1719C105.896 49.1719 105.057 65.0372 105.896 74.6838C105.896 74.6838 125.009 82.2985 155.47 76.4599C155.47 76.4599 158.39 65.9252 157.629 49.1719H105.896Z" fill="#F9B0A0"/>
<path d="M93.4062 57.0346C93.4062 57.0346 135.671 46.1266 167.147 53.2332C167.147 53.2332 168.417 59.0092 168.421 63.0065C168.421 63.0065 175.27 59.5799 176.794 52.9799C178.317 46.3799 179.078 38.2572 171.97 35.0839C164.863 31.9105 139.098 26.5799 112.698 32.1652C87.5728 37.4799 91.9222 41.3025 92.1368 48.5372C92.2795 53.3599 93.4062 57.0346 93.4062 57.0346Z" fill="#FFFDFC"/>
<path d="M146.025 70.9665C145.849 70.9665 145.67 70.9572 145.49 70.9385C142.528 70.6332 140.67 67.9639 140.26 63.4212C140.221 62.9879 140.54 62.6065 140.973 62.5665C141.401 62.5372 141.788 62.8465 141.828 63.2799C142.064 65.9038 142.92 69.0918 145.652 69.3745C148.678 69.6785 150.252 65.8825 150.904 63.5852C151.021 63.1665 151.456 62.9225 151.874 63.0425C152.292 63.1611 152.536 63.5958 152.417 64.0145C151.14 68.5225 148.882 70.9665 146.025 70.9665Z" fill="#1E1F20"/>
<path d="M115.821 68.0759C115.564 68.0759 115.301 68.0559 115.033 68.0145C111.8 67.5212 110.09 64.6732 110.221 59.9946C110.233 59.5612 110.621 59.2399 111.029 59.2306C111.462 59.2426 111.805 59.6039 111.793 60.0386C111.718 62.7146 112.261 65.9999 115.27 66.4599C118.506 66.9479 119.998 62.7079 120.597 60.1332C120.695 59.7092 121.12 59.4506 121.541 59.5439C121.964 59.6426 122.227 60.0653 122.129 60.4879C120.985 65.4186 118.761 68.0759 115.821 68.0759Z" fill="#1E1F20"/>
<path d="M147.156 72.9666C144.281 72.9666 141.952 75.2959 141.952 78.1705C141.952 78.2132 141.96 78.2559 141.965 78.2985C145.193 78.0412 148.609 77.6319 152.192 77.0412C151.673 74.7159 149.637 72.9666 147.156 72.9666Z" fill="#EF8E76"/>
<path d="M112.038 71.6706C109.782 71.6706 107.897 73.1226 107.177 75.1319C108.893 75.6892 112.305 76.664 117.185 77.4493C117.211 77.26 117.242 77.072 117.242 76.8746C117.242 74.0013 114.913 71.6706 112.038 71.6706Z" fill="#EF8E76"/>
<path d="M200.232 37.1573C200.232 37.1573 205.14 30.8106 214.109 32.672C223.078 34.5346 226.716 50.4413 210.64 49.68C210.64 49.68 210.64 61.8639 202.009 62.5453C192.645 63.2853 191.009 53.656 195.662 50.0186C195.662 50.0186 190.501 48.9186 189.825 43.9266C189.148 38.9333 194.224 34.196 200.232 37.1573Z" fill="#FFFDFC"/>
<path d="M202.347 251.541H170.194C168.518 251.541 167.147 250.171 167.147 248.495V241.219C167.147 239.543 168.518 238.172 170.194 238.172H202.347C204.022 238.172 205.393 239.543 205.393 241.219V248.495C205.393 250.171 204.022 251.541 202.347 251.541Z" fill="#FFFDFC"/>
<path d="M138.541 73.7799C138.541 77.9012 134.361 81.2439 129.205 81.2439C124.049 81.2439 119.869 77.9012 119.869 73.7799C119.869 69.6572 124.049 66.3159 129.205 66.3159C134.361 66.3159 138.541 69.6572 138.541 73.7799Z" fill="#EF8E76"/>
<path d="M130.961 71.6706C130.961 72.9533 129.66 73.9934 128.056 73.9934C126.452 73.9934 125.152 72.9533 125.152 71.6706C125.152 70.3893 126.452 69.3493 128.056 69.3493C129.66 69.3493 130.961 70.3893 130.961 71.6706Z" fill="#F9B0A0"/>
<path d="M176.794 52.9799C177.915 48.1159 178.613 42.4306 176.064 38.5026C173.031 45.4559 152.457 46.6585 126.051 47.8785C105.941 48.8079 96.5626 53.9652 93.2266 56.3772C93.3346 56.8012 93.4062 57.0346 93.4062 57.0346C93.4062 57.0346 135.67 46.1266 167.147 53.2332C167.147 53.2332 168.417 59.0092 168.421 63.0065C168.421 63.0065 175.27 59.5799 176.794 52.9799Z" fill="#EAEAE8"/>
<path d="M170.743 35.436C170.743 35.436 173.67 33.14 170.204 27.44C166.738 21.74 164.504 18.2733 162.809 19.1213C161.114 19.968 165.197 33.14 165.197 33.14L170.743 35.436Z" fill="#D33B3E"/>
</svg>
