<svg width="359" height="424" viewBox="0 0 359 424" fill="none" xmlns="http://www.w3.org/2000/svg">
<path d="M358.604 228.705C358.604 327.591 278.328 407.754 179.302 407.754C80.2763 407.754 0 327.591 0 228.705C0 129.818 80.2763 49.655 179.302 49.655C278.328 49.655 358.604 129.818 358.604 228.705Z" fill="url(#paint0_radial_57544_2164)"/>
<path d="M121.066 63.1048C121.066 63.1048 134.476 6.81278 188.413 0.955746C242.35 -4.90129 252.126 15.8619 274.609 71.535L265.811 79.1413C265.811 79.1413 259.909 57.8627 237.267 55.1451L232.901 69.5924L121.066 63.1048Z" fill="#F04041"/>
<path d="M252.05 182.422C252.05 182.422 269.206 209.15 264.746 260.208C264.746 260.208 204.009 291.389 94.5452 262.949C94.5452 262.949 94.4201 222.285 112.045 182.422L117.879 149.527L242.863 152.573L252.05 182.422Z" fill="#F04041"/>
<path d="M252.05 182.422L242.863 152.573L237.582 152.444L239.815 176.651C239.815 176.651 256.036 239.468 204.938 264.337C180.501 276.229 140.765 267.07 94.4315 255.993C94.3748 260.413 94.5452 262.949 94.5452 262.949C200.234 295.387 264.746 260.208 264.746 260.208C269.206 209.15 252.05 182.422 252.05 182.422Z" fill="#D33B3E"/>
<path d="M91.6065 282.347L83.7939 300.016C83.7939 300.016 126.114 320.973 184.45 321.657C242.785 322.343 278.928 302.925 278.928 302.925L269.043 284.024L91.6065 282.347Z" fill="#F04041"/>
<path d="M259.538 321.675C259.538 321.675 263.708 349.299 259.538 364.719L210.07 368.488L198.404 332.85L259.538 321.675Z" fill="#F04041"/>
<path d="M259.538 321.675L254.595 322.579C254.367 323.7 254.163 324.908 253.993 326.226C250.584 352.684 231.551 363.518 219.613 367.762L259.538 364.719C263.708 349.299 259.538 321.675 259.538 321.675Z" fill="#D33B3E"/>
<path d="M213.272 377.626L222.424 424H277.327L257.653 408.467L258.339 371.601L213.272 377.626Z" fill="#1E1F20"/>
<path d="M258.709 382.069L211.755 384.355C209.493 384.465 207.552 382.708 207.44 380.449L206.932 370.009C206.821 367.75 208.582 365.812 210.844 365.703L257.8 363.416C260.062 363.305 262.001 365.064 262.113 367.323L262.623 377.762C262.733 380.021 260.971 381.957 258.709 382.069Z" fill="#FFFDFC"/>
<path d="M104.408 321.675C104.408 321.675 100.236 349.299 104.408 364.719L153.874 368.488L165.542 332.85L104.408 321.675Z" fill="#F04041"/>
<path d="M104.408 321.675L109.349 322.579C109.58 323.7 109.783 324.908 109.951 326.226C113.361 352.684 132.396 363.518 144.332 367.762L104.408 364.719C100.236 349.299 104.408 321.675 104.408 321.675Z" fill="#D33B3E"/>
<path d="M150.672 377.626L141.522 424H86.617L106.291 408.467L105.605 371.601L150.672 377.626Z" fill="#1E1F20"/>
<path d="M105.235 382.069L152.191 384.355C154.453 384.465 156.392 382.708 156.504 380.449L157.014 370.009C157.124 367.75 155.362 365.812 153.1 365.703L106.146 363.416C103.884 363.305 101.943 365.064 101.832 367.323L101.323 377.762C101.212 380.021 102.973 381.957 105.235 382.069Z" fill="#FFFDFC"/>
<path d="M86.0364 294.942C86.0364 294.942 79.219 305.896 79.4477 311.379C79.6764 316.86 101.179 326.169 113.247 330.11C150.684 342.335 204.351 344.331 232.948 339.705C254.969 336.142 283.619 323.794 285.22 319.945C286.821 316.096 282.131 303.954 277.407 300.016C277.407 300.016 230.305 325.611 176.9 319.602C111.932 312.292 86.0364 294.942 86.0364 294.942Z" fill="#FFFDFC"/>
<path d="M227.304 60.9337C227.304 60.9337 231.652 57.5308 226.504 49.0771C221.357 40.6254 218.041 35.4849 215.523 36.7422C213.006 37.9995 219.069 57.5308 219.069 57.5308L227.304 60.9337Z" fill="#D33B3E"/>
<path d="M264.855 70.6408C264.855 70.6408 271.575 61.9646 283.855 64.5104C296.135 67.0563 301.116 88.8054 279.104 87.7648C279.104 87.7648 279.104 104.424 267.287 105.355C254.466 106.367 252.225 93.2021 258.599 88.2275C258.599 88.2275 251.531 86.7223 250.604 79.8969C249.678 73.0715 256.628 66.5935 264.855 70.6408Z" fill="#FFFDFC"/>
<path d="M237.267 109.295C237.267 114.303 233.204 118.36 228.19 118.36C223.177 118.36 219.112 114.303 219.112 109.295C219.112 104.289 223.177 100.23 228.19 100.23C233.204 100.23 237.267 104.289 237.267 109.295Z" fill="#F9B0A0"/>
<path d="M230.055 109.295C230.055 111.527 228.245 113.335 226.01 113.335C223.777 113.335 221.967 111.527 221.967 109.295C221.967 107.066 223.777 105.258 226.01 105.258C228.245 105.258 230.055 107.066 230.055 109.295Z" fill="#EF8E76"/>
<path d="M113.851 113.335C113.851 118.342 117.916 122.399 122.931 122.399C127.943 122.399 132.008 118.342 132.008 113.335C132.008 108.329 127.943 104.27 122.931 104.27C117.916 104.27 113.851 108.329 113.851 113.335Z" fill="#F9B0A0"/>
<path d="M121.066 113.335C121.066 115.566 122.876 117.374 125.109 117.374C127.343 117.374 129.154 115.566 129.154 113.335C129.154 111.105 127.343 109.295 125.109 109.295C122.876 109.295 121.066 111.105 121.066 113.335Z" fill="#EF8E76"/>
<path d="M220.029 81.0019C220.029 81.0019 225.611 98.0791 223.044 115.853C223.044 115.853 240.884 136.888 238.196 160.072C235.507 183.256 221.089 192.774 221.089 192.774C221.089 192.774 221.089 203.024 209.602 214.982C198.116 226.94 159.992 229.868 162.191 257.933C162.191 257.933 141.418 253.052 127.244 237.19C113.069 221.327 121.867 194.482 121.867 194.482C121.867 194.482 97.673 161.292 127.007 118.36C127.007 118.36 123.334 96.8648 125.533 85.3947C127.733 73.9247 205.774 63.1868 220.029 81.0019Z" fill="#FFFDFC"/>
<path d="M209.602 214.982C221.089 203.024 221.089 192.774 221.089 192.774C221.089 192.774 235.507 183.256 238.196 160.072C240.69 138.557 225.515 118.903 223.316 116.185L223.044 115.853C223.044 115.853 230.055 124.686 230.055 148.358C230.055 178.457 211.97 170.16 206.019 193.588C200.068 217.016 177.344 203.756 163.902 224.255C150.461 244.755 162.191 257.933 162.191 257.933C159.992 229.868 198.116 226.94 209.602 214.982Z" fill="#EAEAE8"/>
<path d="M138.595 72.2611C138.595 72.2611 180.448 67.2456 211.172 72.5208C211.172 72.5208 215.514 81.0408 211.696 116.9C211.696 116.9 175.82 125 137.887 119.123C137.887 119.123 132.313 91.5464 138.595 72.2611Z" fill="#F9B0A0"/>
<path d="M211.172 72.5208C207.735 71.9312 204.153 71.4763 200.511 71.1229C200.552 71.3474 200.593 71.5837 200.634 71.8316C204.277 94.2016 187.306 114.729 164.629 115.654C156.252 115.996 146.906 115.925 137.195 115.051C137.582 117.604 137.887 119.123 137.887 119.123C175.82 125 211.696 116.9 211.696 116.9C215.514 81.0408 211.172 72.5208 211.172 72.5208Z" fill="#F8A099"/>
<path d="M188.409 116.458C188.577 121.997 182.176 126.685 174.112 126.927C166.047 127.171 159.374 122.878 159.206 117.339C159.038 111.8 165.441 107.114 173.505 106.87C181.568 106.628 188.243 110.921 188.409 116.458Z" fill="#EF8E76"/>
<path d="M172.949 113.471C172.986 114.674 171.596 115.691 169.844 115.744C168.092 115.797 166.643 114.865 166.606 113.663C166.571 112.46 167.961 111.441 169.713 111.388C171.463 111.336 172.913 112.269 172.949 113.471Z" fill="#F9B0A0"/>
<path d="M204.136 109.129C204.245 112.733 201.409 115.74 197.801 115.849C194.194 115.958 191.181 113.126 191.074 109.524C190.964 105.921 193.801 102.913 197.408 102.804C201.016 102.696 204.028 105.527 204.136 109.129Z" fill="#EF8E76"/>
<path d="M156.228 110.574C156.336 114.176 153.501 117.185 149.892 117.294C146.285 117.401 143.272 114.57 143.164 110.968C143.055 107.366 145.892 104.358 149.499 104.248C153.106 104.139 156.119 106.972 156.228 110.574Z" fill="#EF8E76"/>
<path d="M196.941 96.8725C197.037 100.055 194.533 102.712 191.346 102.808C188.159 102.903 185.498 100.402 185.402 97.22C185.307 94.0377 187.811 91.3805 190.998 91.2848C194.185 91.1892 196.846 93.6901 196.941 96.8725Z" fill="#1E1F20"/>
<path d="M193.457 96.9778C193.496 98.239 192.503 99.2914 191.24 99.3285C189.979 99.3675 188.923 98.3757 188.886 97.1145C188.847 95.8552 189.84 94.8009 191.103 94.7638C192.366 94.7248 193.42 95.7166 193.457 96.9778Z" fill="white"/>
<path d="M162.66 97.9053C162.756 101.088 160.252 103.745 157.065 103.84C153.878 103.938 151.217 101.435 151.121 98.2528C151.024 95.0725 153.53 92.4153 156.717 92.3177C159.902 92.222 162.565 94.723 162.66 97.9053Z" fill="#1E1F20"/>
<path d="M159.176 98.0106C159.214 99.2718 158.222 100.324 156.959 100.363C155.696 100.4 154.643 99.4085 154.604 98.1492C154.566 96.888 155.56 95.8337 156.821 95.7966C158.084 95.7595 159.137 96.7494 159.176 98.0106Z" fill="white"/>
<path d="M189.327 87.8957C185.62 88.0128 183.254 82.2143 186.253 79.1589C189.254 76.1054 201.695 81.0214 204.221 83.6219C206.749 86.2225 194.056 87.7492 189.327 87.8957Z" fill="#FFFDFC"/>
<path d="M157.938 88.8463C161.574 88.737 163.662 82.8038 160.479 79.9319C157.298 77.062 145.167 82.7237 142.799 85.4746C140.432 88.2235 153.204 88.9888 157.938 88.8463Z" fill="#FFFDFC"/>
<path d="M176.342 138.096C175.912 138.127 175.478 138.143 175.04 138.139C166.665 138.059 162.794 131.745 162.633 131.478C162.244 130.828 162.455 129.986 163.106 129.598C163.757 129.211 164.596 129.422 164.987 130.068C165.12 130.287 168.272 135.334 175.066 135.396C178.894 135.427 182.323 133.737 185.533 130.215C186.044 129.656 186.912 129.613 187.473 130.125C188.034 130.632 188.075 131.499 187.565 132.06C184.151 135.804 180.47 137.788 176.342 138.096Z" fill="#EF8E76"/>
<path d="M125.533 85.3947C125.533 85.3947 166.59 64.5691 220.029 81.0019C220.029 81.0019 223.777 93.5262 223.288 102.802C223.288 102.802 231.459 98.6687 236.159 87.8976C240.395 78.1906 244.143 65.7092 223.126 55.7835C197.088 43.4896 156.842 45.6977 137.196 51.3907C117.551 57.0857 111.359 68.7998 111.685 74.6568C112.01 80.5138 114.292 95.9706 119.017 101.176C123.741 106.382 126.022 106.861 126.022 106.861C126.022 106.861 124.556 94.1803 125.533 85.3947Z" fill="#FFFDFC"/>
<path d="M227.661 58.1964C216.165 70.0237 199.975 64.3366 170.989 67.0093C141.011 69.7758 125.533 85.3947 125.533 85.3947C125.533 85.3947 166.59 64.5691 220.029 81.0019C220.029 81.0019 223.777 93.5262 223.288 102.802C223.288 102.802 231.459 98.6687 236.159 87.8976C240.059 78.9617 243.527 67.677 227.661 58.1964Z" fill="#EAEAE8"/>
<path d="M220.053 274.915H136.514V211.495H220.053V274.915Z" fill="#63C88F"/>
<path d="M220.053 221.137H136.514V211.495H220.053V221.137Z" fill="#4EA775"/>
<path d="M136.535 252.213V236.785H220.053V252.213H136.535Z" fill="#1A4246"/>
<path d="M224.559 218.082H132.009V200.298H224.559V218.082Z" fill="#56BE83"/>
<path d="M186.006 274.915H170.559V200.298H186.006V274.915Z" fill="#22575F"/>
<path d="M94.4195 260.321C94.4195 260.321 177.108 294.387 265.021 259.565C265.021 259.565 270.594 273.06 269.043 284.024C269.043 284.024 184.45 320.004 91.4575 284.024C91.4575 284.024 92.3627 272.933 94.4195 260.321Z" fill="#1E1F20"/>
<path d="M206.412 289.333C168.243 299.081 110.294 288.325 93.6693 284.856C185.786 319.422 269.043 284.024 269.043 284.024C270.31 275.063 266.823 264.417 265.503 260.823C265.026 260.434 264.746 260.208 264.746 260.208C264.746 260.208 251.364 277.855 206.412 289.333Z" fill="#111111"/>
<path d="M193.947 294.799H164.656C164.253 294.799 163.927 294.473 163.927 294.071V280.836C163.927 280.434 164.253 280.108 164.656 280.108H193.947C194.35 280.108 194.677 280.434 194.677 280.836V294.071C194.677 294.473 194.35 294.799 193.947 294.799ZM156.773 275.241V299.665C156.773 300.067 157.1 300.393 157.502 300.393H201.101C201.504 300.393 201.83 300.067 201.83 299.665V275.241C201.83 274.839 201.504 274.514 201.101 274.514H157.502C157.1 274.514 156.773 274.839 156.773 275.241Z" fill="#FCCE3C"/>
<path d="M113.386 150.863C96.5211 161.374 70.6375 182.127 71.2964 210.278C72.274 251.937 109.006 279.27 141.266 288.056V270.627C141.266 270.627 108.443 241.535 109.91 207.933C110.369 197.422 112.264 187.147 114.649 177.986C112.727 170.79 111.63 161.544 113.386 150.863Z" fill="#F04041"/>
<path d="M237.452 145.693C238.193 149.351 238.565 153.184 238.393 157.11C243.128 169.357 249.028 188.228 249.889 207.933C251.355 241.535 218.533 270.627 218.533 270.627V288.056C250.792 279.27 288.488 251.949 288.502 210.278C288.514 174.47 253.517 150.066 237.452 145.693Z" fill="#F04041"/>
<path d="M189.531 272.287C189.531 272.287 175.994 273.087 173.576 280.881C171.157 288.675 174.008 293.626 182.644 296.502C189.471 298.776 201.725 294.469 209.544 288.724L207.728 271.381C207.728 271.381 194.165 258.679 188.564 263.931C184.765 267.494 189.531 272.287 189.531 272.287Z" fill="#F04041"/>
<path d="M172.792 284.823C193.205 295.615 205.125 277.051 207.79 272.23L209.544 288.724C201.725 294.469 189.471 298.776 182.644 296.502C175.564 294.143 172.379 290.391 172.792 284.823Z" fill="#D33B3E"/>
<path d="M221.642 269.085L224.356 286.185C224.356 286.185 219.255 290.676 209.544 288.724L206.785 270.539C206.785 270.539 212.6 267.187 221.642 269.085Z" fill="#FFFDFC"/>
<path d="M209.18 286.81C209.255 286.814 209.329 286.818 209.403 286.822C215.458 287.082 220.172 281.603 219.224 275.625L217.699 268.503C218.85 268.583 220.457 268.732 221.734 268.999L224.475 286.268C224.475 286.268 219.323 290.801 209.519 288.831L209.18 286.81Z" fill="#EAEAE8"/>
<path d="M113.387 150.863C94.5455 158.119 70.5291 177.151 67.8584 211.495C64.6286 253.04 103.142 279.27 135.401 288.056V270.627C135.401 270.627 102.579 241.535 104.045 207.933C104.505 197.422 106.399 187.147 108.785 177.986C106.863 170.79 111.631 161.544 113.387 150.863Z" fill="#F04041"/>
<path d="M164.404 272.287C164.404 272.287 177.94 273.087 180.358 280.881C182.776 288.675 179.928 293.626 171.29 296.502C164.463 298.776 152.208 294.469 144.392 288.724L146.208 271.381C146.208 271.381 159.771 258.679 165.37 263.931C169.171 267.494 164.404 272.287 164.404 272.287Z" fill="#F04041"/>
<path d="M181.144 284.823C160.731 295.615 148.809 277.051 146.144 272.23L144.392 288.724C152.208 294.469 164.463 298.776 171.29 296.502C178.37 294.143 181.555 290.391 181.144 284.823Z" fill="#D33B3E"/>
<path d="M138.159 269.085L135.445 286.185C135.445 286.185 140.546 290.676 150.257 288.723L153.016 270.539C153.016 270.539 147.201 267.187 138.159 269.085Z" fill="#FFFDFC"/>
<path d="M150.619 286.81C150.545 286.814 150.471 286.818 150.398 286.822C144.343 287.082 139.628 281.603 140.576 275.625L142.103 268.503C140.951 268.583 139.344 268.732 138.066 268.999L135.326 286.268C135.326 286.268 140.476 290.801 150.283 288.831L150.619 286.81Z" fill="#EAEAE8"/>
<defs>
<radialGradient id="paint0_radial_57544_2164" cx="0" cy="0" r="1" gradientUnits="userSpaceOnUse" gradientTransform="translate(179.302 212) rotate(-90) scale(212 179.302)">
<stop stop-color="#446D61"/>
<stop offset="1" stop-color="#84D3BC"/>
</radialGradient>
</defs>
</svg>
